:SAMPLES-PER-SECOND 30
:FULLY-SPECIFIED
:DEGREES
731
root  -52.3837 40.6451 -1.22598 -171.41 -21.0316 178.624
RightUpLeg  -10.8101 -7.57391 -7.02975
RightLeg  5.4866 10.376 -1.20582
RightFoot  -0.811449 -0.382373 4.08654
RightToes  -4.65661e-009 0 -3.6325e-017
Spine  18.3388 4.18666 16.0539
Spine1  1.51313 9.98702 -16.417
HEad  -32.3418 -30.8502 9.27668
LeftShoulder1  0.206031 2.93808 -30.305
LeftArm  7.19461 7.97437 -41.2659
LeftForeArm  23.9732 -25.2324 -4.13118
LeftHand  -0.0294632 5.46848 0.0224645
RightShoulder  0.0248831 -3.39581 24.529
RightArm  -25.6172 42.8757 37.9798
RightForeArm  1.47131 42.6449 10.1765
RightHand  -0.80881 8.33526 -7.16929
LeftUpLeg  -15.2834 2.44032 -1.29855
LeftLeg  5.56297 -7.55378 -0.874509
LeftFoot  4.11243 -0.666923 4.72937
LeftToes  9.86798e-010 -1.28139e-010 1.4132e-011
732
root  -52.5491 40.6449 -1.34212 -171.455 -19.9119 178.505
RightUpLeg  -10.6443 -7.77783 -7.32756
RightLeg  5.31351 11.5352 -1.13718
RightFoot  -0.825833 -0.390492 4.17917
RightToes  -4.65661e-009 0 -3.6325e-017
Spine  17.9619 4.31331 16.8391
Spine1  1.56174 10.4606 -17.8034
HEad  -32.4335 -30.3205 9.22855
LeftShoulder1  0.184687 2.9965 -30.5143
LeftArm  10.3095 7.64835 -41.2397
LeftForeArm  21.5923 -23.3551 -3.91036
LeftHand  -0.0290563 5.61594 0.330826
RightShoulder  0.0676423 -3.25335 24.5089
RightArm  -22.3169 42.2088 36.8281
RightForeArm  -4.50815 38.4103 9.11441
RightHand  -0.954547 9.08628 -8.0385
LeftUpLeg  -14.9266 2.40385 -1.51703
LeftLeg  5.78867 -6.40261 -0.785207
LeftFoot  3.63117 -0.667663 4.90957
LeftToes  9.86798e-010 -1.28139e-010 1.4132e-011
733
root  -52.6523 40.6448 -1.45297 -171.162 -19.1621 178.249
RightUpLeg  -10.9086 -7.861 -7.59622
RightLeg  5.47001 12.2571 -1.14013
RightFoot  -0.98368 -0.375499 4.06606
RightToes  -4.65661e-009 0 -3.6325e-017
Spine  18.3725 4.39606 18.761
Spine1  0.928771 11.3778 -20.8965
HEad  -33.6956 -31.8385 10.5041
LeftShoulder1  0.310115 2.63342 -29.5141
LeftArm  10.3299 7.90703 -42.1618
LeftForeArm  23.1439 -22.8294 -3.85253
LeftHand  -0.0331353 5.83548 -0.108446
RightShoulder  -0.0264748 -3.55963 26.3509
RightArm  -23.1644 38.095 35.218
RightForeArm  0.226752 45.7582 11.6527
RightHand  -0.816271 7.07614 -7.89816
LeftUpLeg  -14.7654 2.18592 -1.82849
LeftLeg  5.61221 -5.31959 -0.635598
LeftFoot  3.43308 -0.661834 4.941
LeftToes  9.86798e-010 -1.28139e-010 1.4132e-011
734
root  -52.7012 40.6522 -1.58712 -170.88 -19.5652 177.851
RightUpLeg  -10.795 -8.0867 -7.95307
RightLeg  5.59455 12.036 -1.23426
RightFoot  -1.22878 -0.369722 4.08168
RightToes  -4.65661e-009 0 -3.6325e-017
Spine  18.2208 4.68015 18.5129
Spine1  0.997125 11.3728 -19.6969
HEad  -35.4118 -32.2649 9.85061
LeftShoulder1  0.214047 2.92698 -30.9687
LeftArm  10.5464 8.13218 -41.7892
LeftForeArm  23.5141 -23.4808 -3.84757
LeftHand  -0.0328537 5.7851 -0.709109
RightShoulder  -0.0134555 -3.51655 26.4209
RightArm  -27.3864 32.7169 35.6788
RightForeArm  9.89335 56.954 16.6987
RightHand  -0.606677 6.11029 -6.45953
LeftUpLeg  -14.4761 1.92794 -2.20887
LeftLeg  5.09721 -5.45338 -0.65014
LeftFoot  3.56931 -0.679557 5.02321
LeftToes  9.86798e-010 -1.28139e-010 1.4132e-011
735
root  -52.708 40.6704 -1.76827 -170.586 -20.5717 177.649
RightUpLeg  -10.3105 -8.29325 -8.0938
RightLeg  5.22696 11.2986 -1.37683
RightFoot  -1.40971 -0.381725 4.27954
RightToes  -4.65661e-009 0 -3.6325e-017
Spine  17.6826 4.63514 17.9654
Spine1  0.667206 10.7488 -18.0181
HEad  -35.6982 -32.1513 8.10679
LeftShoulder1  0.133427 3.15342 -32.0819
LeftArm  9.90403 9.44249 -41.1777
LeftForeArm  22.2969 -24.678 -4.09991
LeftHand  -0.0318125 5.79985 -0.00470247
RightShoulder  -0.095767 -3.76648 26.7287
RightArm  -29.4248 30.0056 37.5668
RightForeArm  17.937 63.5918 21.3907
RightHand  -0.64418 5.89655 -6.93334
LeftUpLeg  -14.2965 1.74902 -2.39503
LeftLeg  4.66534 -6.29078 -0.634558
LeftFoot  3.84184 -0.72967 5.29466
LeftToes  9.86798e-010 -1.28139e-010 1.4132e-011
736
root  -52.6819 40.6842 -1.92381 -170.453 -21.2598 177.589
RightUpLeg  -9.9444 -8.27186 -8.06724
RightLeg  5.08886 10.6375 -1.44444
RightFoot  -1.56445 -0.384922 4.37271
RightToes  -4.65661e-009 0 -3.6325e-017
Spine  16.829 4.71617 17.4693
Spine1  0.825429 10.3597 -16.5434
HEad  -35.0379 -31.9372 6.69465
LeftShoulder1  0.0462586 3.38564 -32.9052
LeftArm  9.93767 10.0631 -40.9274
LeftForeArm  21.4245 -25.459 -4.3188
LeftHand  -0.0276476 5.64022 0.551521
RightShoulder  -0.0245447 -3.55439 25.7533
RightArm  -30.4395 29.238 39.7199
RightForeArm  19.5171 63.3806 21.2041
RightHand  -0.73332 6.62833 -7.4105
LeftUpLeg  -14.1155 1.71036 -2.40307
LeftLeg  4.40446 -6.91086 -0.569383
LeftFoot  3.91656 -0.734572 5.31503
LeftToes  9.86798e-010 -1.28139e-010 1.4132e-011
737
root  -52.6511 40.7005 -2.05444 -170.505 -21.791 177.568
RightUpLeg  -9.56971 -8.42229 -8.08789
RightLeg  5.13922 10.3197 -1.27027
RightFoot  -1.70692 -0.377818 4.3419
RightToes  -4.65661e-009 0 -3.6325e-017
Spine  16.4785 4.80347 17.8712
Spine1  0.438287 10.4335 -16.8973
HEad  -33.8083 -32.877 7.27885
LeftShoulder1  0.0868765 3.27849 -32.4209
LeftArm  10.377 9.89828 -41.6069
LeftForeArm  21.252 -25.2378 -4.28063
LeftHand  -0.0238125 5.34371 0.608233
RightShoulder  0.0312726 -3.37901 26.0594
RightArm  -29.7906 29.8383 39.0762
RightForeArm  13.5402 56.65 16.2734
RightHand  -0.863654 8.026 -7.80862
LeftUpLeg  -13.827 1.69145 -2.38891
LeftLeg  4.23696 -7.3072 -0.469602
LeftFoot  3.92436 -0.73575 5.35924
LeftToes  9.86798e-010 -1.28139e-010 1.4132e-011
738
root  -52.6361 40.718 -2.15363 -171.113 -22.0324 177.304
RightUpLeg  -8.69443 -8.76821 -8.41559
RightLeg  5.37002 10.4845 -1.12846
RightFoot  -1.87993 -0.351252 4.08604
RightToes  -4.65661e-009 0 -3.6325e-017
Spine  16.6667 5.13705 18.0232
Spine1  0.420036 10.7452 -16.5096
HEad  -33.1973 -33.8913 7.22447
LeftShoulder1  0.0492939 3.37721 -32.8477
LeftArm  12.8098 8.52775 -41.7275
LeftForeArm  20.6162 -25.073 -4.27889
LeftHand  -0.0305515 5.49606 -0.0641473
RightShoulder  0.114994 -3.1137 25.4002
RightArm  -28.2835 31.1593 37.4865
RightForeArm  3.42281 46.1394 11.4308
RightHand  -1.12103 10.8989 -8.37776
LeftUpLeg  -12.7752 1.53758 -2.63027
LeftLeg  3.92832 -7.28537 -0.264032
LeftFoot  3.9416 -0.722992 5.21974
LeftToes  9.86798e-010 -1.28139e-010 1.4132e-011
739
root  -52.5804 40.7052 -2.2195 -171.531 -22.5821 177.217
RightUpLeg  -8.26315 -9.09625 -8.5999
RightLeg  5.98562 10.3686 -0.723822
RightFoot  -2.20049 -0.32081 3.82381
RightToes  -4.65661e-009 0 -3.6325e-017
Spine  16.6757 5.38791 18.5358
Spine1  0.535575 11.0537 -16.3929
HEad  -32.7165 -34.6417 7.14556
LeftShoulder1  0.042427 3.39319 -33.043
LeftArm  12.9594 7.51724 -41.9919
LeftForeArm  22.5355 -25.8251 -4.33921
LeftHand  -0.0310535 5.17207 -0.582516
RightShoulder  0.115405 -3.10913 25.3371
RightArm  -26.2212 32.6188 35.1781
RightForeArm  -3.40453 39.3215 9.30623
RightHand  -1.18205 11.9849 -8.29214
LeftUpLeg  -12.4547 1.60892 -2.60149
LeftLeg  4.35277 -7.82415 -0.392296
LeftFoot  3.71402 -0.72866 5.33894
LeftToes  9.86798e-010 -1.28139e-010 1.4132e-011
740
root  -52.5244 40.692 -2.28049 -171.344 -23.2031 177.155
RightUpLeg  -8.41113 -9.06221 -8.55965
RightLeg  6.40227 9.7117 -0.621144
RightFoot  -2.44909 -0.298151 3.61702
RightToes  -4.65661e-009 0 -3.6325e-017
Spine  16.5778 5.36577 20.3914
Spine1  0.674188 11.6621 -18.4454
HEad  -33.5726 -35.9024 8.10489
LeftShoulder1  0.151236 3.10491 -31.7145
LeftArm  12.3987 7.12261 -42.8489
LeftForeArm  23.2707 -27.1256 -4.58481
LeftHand  -0.0288757 4.87433 0.470044
RightShoulder  0.053436 -3.31199 26.3323
RightArm  -25.7578 31.4202 33.1506
RightForeArm  0.104901 44.455 11.0974
RightHand  -1.13275 10.3148 -8.73376
LeftUpLeg  -12.7721 1.50345 -2.59551
LeftLeg  4.67077 -8.30927 -0.400996
LeftFoot  3.63155 -0.731761 5.37003
LeftToes  9.86798e-010 -1.28139e-010 1.4132e-011
741
root  -52.4322 40.6776 -2.35692 -171.006 -24.1835 176.833
RightUpLeg  -8.54324 -9.28475 -8.72774
RightLeg  6.90895 8.87334 -0.445718
RightFoot  -2.87849 -0.271586 3.40373
RightToes  -4.65661e-009 0 -3.6325e-017
Spine  16.4726 5.48649 20.6853
Spine1  0.704768 11.7228 -18.0482
HEad  -35.2918 -36.2362 8.46246
LeftShoulder1  0.124689 3.17891 -32.2332
LeftArm  10.9616 7.09554 -42.456
LeftForeArm  24.1969 -29.1236 -4.98782
LeftHand  -0.0286085 4.9313 0.620703
RightShoulder  0.0826183 -3.21492 25.687
RightArm  -28.4066 28.3851 33.2118
RightForeArm  6.02675 54.0661 15.1835
RightHand  -1.00482 9.22008 -8.3411
LeftUpLeg  -12.9692 1.15867 -2.80094
LeftLeg  4.58105 -8.92606 -0.281578
LeftFoot  3.76605 -0.721023 5.17164
LeftToes  9.86798e-010 -1.28139e-010 1.4132e-011
742
root  -52.3234 40.683 -2.44511 -170.665 -25.1134 176.469
RightUpLeg  -8.68762 -9.48921 -8.88288
RightLeg  7.44091 8.08654 -0.317328
RightFoot  -3.18475 -0.252146 3.23098
RightToes  -4.65661e-009 0 -3.6325e-017
Spine  15.8893 5.22192 20.3246
Spine1  1.03565 11.2514 -17.5867
HEad  -35.5747 -35.296 8.5845
LeftShoulder1  0.0882578 3.27108 -31.8297
LeftArm  7.61365 8.30508 -42.5323
LeftForeArm  25.0084 -31.6775 -5.54298
LeftHand  -0.0295226 5.18337 0.785648
RightShoulder  -0.0719857 -3.69551 26.8841
RightArm  -29.4009 28.8392 34.0257
RightForeArm  11.4618 59.8384 18.5799
RightHand  -0.85713 7.90341 -7.83017
LeftUpLeg  -12.9662 0.984175 -2.95159
LeftLeg  4.13974 -9.7038 -0.282104
LeftFoot  4.12323 -0.713166 5.04115
LeftToes  9.86798e-010 -1.28139e-010 1.4132e-011
